<svg xmlns="http://www.w3.org/2000/svg" width="409.753" height="409.733" viewBox="0 0 409.753 409.733">
  <g id="New_Layer" data-name="New Layer" transform="translate(-100.747 601.233)">
    <g id="Grupo_1" data-name="Grupo 1">
      <path id="Caminho_1" data-name="Caminho 1" d="M140-600.3c-13.6,2.6-28.2,14-34.4,27a47.523,47.523,0,0,0-3.9,30.1c2.3,10.3,6,17.7,12.3,24.5,30.6,32.9,84.5,11.7,84.5-33.3C198.5-583.4,170.8-606.2,140-600.3Z" fill="#020102" fill-rule="evenodd"/>
      <path id="Caminho_2" data-name="Caminho 2" d="M387.5-469.5c-4.7,1-10.7,2.6-13.5,3.5-16.7,5.8-33.5,18.6-42.5,32.7l-4,6-.2-18.8L327-465l-40.7-.3-40.8-.2v274h85v-73.3c0-73,.5-84.9,3.6-97.2,3.7-14.4,12.5-25.9,23.6-31,11.4-5.2,29.7-5.8,41.2-1.5,11.1,4.2,19.4,14.5,23,28.6,3,11.7,3.6,27.9,3.6,100.6v72.8h85v-79.8c0-82.5-.6-100.7-4.1-120.2-8.2-46.5-31.8-71.1-74.6-77.5C418.3-472,398.2-471.8,387.5-469.5Z" fill="#020102" fill-rule="evenodd"/>
      <path id="Caminho_3" data-name="Caminho 3" d="M107.5-328.5v137h85v-274h-85Z" fill="#020102" fill-rule="evenodd"/>
    </g>
  </g>
</svg>
