<svg xmlns="http://www.w3.org/2000/svg" width="128.194" height="85.466" viewBox="0 0 128.194 85.466">
  <g id="New_Layer" data-name="New Layer" transform="translate(-219.859 453.5)">
    <g id="Grupo_1" data-name="Grupo 1" transform="translate(219.859 -453.5)">
      <path id="Caminho_1" data-name="Caminho 1" d="M247.414-451.715c-5.728,2.009-8.406,3.72-14.357,9.373-5.5,5.207-9.745,11.605-11.6,17.705-2.232,7.067-2.083,19.788.223,27.153,4.017,12.572,14.729,23.061,28.045,27.45,4.463,1.488,6.7,1.637,30.575,1.934,29.384.3,35.484-.3,43.593-4.389,9.076-4.612,18-14.06,21.2-22.392a48.2,48.2,0,0,0,1.711-27.45c-3.422-13.39-14.432-25.144-27.6-29.682-3.943-1.413-6.323-1.488-35.559-1.488C252.77-453.5,252.249-453.426,247.414-451.715Zm61.819,16.143c13.018,2.083,21.8,13.465,20.606,26.781A23.983,23.983,0,0,1,323-394.062l-3.422,3.645,1.265,2.678c1.265,2.529,1.265,2.752-.074,4.166a14.676,14.676,0,0,1-5.356,2.752l-3.943,1.265-3.571-3.5-3.5-3.422-24.177-.223-24.177-.223L251.729-389a24.266,24.266,0,0,1-11.531-11.6c-1.711-3.645-2.009-5.059-2.009-10.861,0-8.034,1.488-11.977,6.546-17.036a24.177,24.177,0,0,1,13.539-7.142C264.078-436.539,303.8-436.464,309.233-435.572Z" transform="translate(-219.859 453.5)" fill-rule="evenodd"/>
      <path id="Caminho_2" data-name="Caminho 2" d="M268.981-404.417c-4.017,4.166-1.934,11.456,3.645,12.5,3.05.521,6.546-.744,8.109-2.976a9.457,9.457,0,0,0,1.116-4.538c0-4.389-2.9-7.067-7.513-7.067C271.585-406.5,270.618-406.128,268.981-404.417Z" transform="translate(-231.904 441.464)" fill-rule="evenodd"/>
      <path id="Caminho_3" data-name="Caminho 3" d="M326.86-404.566c-1.413,1.488-1.86,2.827-1.86,5.282,0,8.481,10.787,10.564,14.432,2.827,1.488-3.124,1.041-5.133-1.637-8.034-1.562-1.637-2.529-2.009-5.5-2.009S328.348-406.128,326.86-404.566Z" transform="translate(-246.784 441.464)" fill-rule="evenodd"/>
    </g>
  </g>
</svg>
