<svg xmlns="http://www.w3.org/2000/svg" width="449.476" height="511.468" viewBox="0 0 449.476 511.468">
  <g id="New_Layer" data-name="New Layer" transform="translate(-81.524 652)">
    <g id="Grupo_1" data-name="Grupo 1">
      <path id="Caminho_1" data-name="Caminho 1" d="M317.8-470.8c-.5,204.2.1,188-8.4,205.3a72.817,72.817,0,0,1-33.9,34.1c-12.7,6.2-19.6,7.8-34,7.8-14,0-21.1-1.6-33-7.4A75.371,75.371,0,0,1,174-265.5c-5.8-12.1-7.4-19-7.4-33-.1-14.5,1.5-21.2,8.1-34.5,3.9-8,6-10.9,13.7-18.5,9.9-9.9,19-15.4,32.1-19.5,9.6-3,25.5-3.7,35.5-1.6a87.928,87.928,0,0,0,8.8,1.6c.9,0,1.2-9.1,1.2-41.9v-42l-4.7-.8c-2.7-.4-12-.7-20.8-.7-25.7.1-46,4.7-68.2,15.4C84.5-398.8,54.7-291.9,108.2-211.2c9.3,14,29.3,34.1,42.8,43.1,41.8,27.7,92.1,34.9,140,19.9,42.9-13.4,81.2-48.5,98.5-90.1a180.1,180.1,0,0,0,10.1-35.2c1.6-9.2,1.7-17.8,1.5-110.3-.2-55.1,0-100.2.4-100.2a18.407,18.407,0,0,1,4.4,2.9c11.2,8.9,34,21,51.3,27.5,19.5,7.2,47.1,12.6,64.8,12.6h9l-.2-41.3-.3-41.2-9.7-.6c-30.6-2-58.5-14.8-81.4-37.4a126.888,126.888,0,0,1-38-81.8l-.7-8.7H318.2Z" fill="#020102" fill-rule="evenodd"/>
    </g>
  </g>
</svg>
