<svg xmlns="http://www.w3.org/2000/svg" width="406.813" height="332.848" viewBox="0 0 406.813 332.848">
  <g id="New_Layer" data-name="New Layer" transform="translate(-102.487 562.43)">
    <g id="Grupo_1" data-name="Grupo 1">
      <path id="Caminho_1" data-name="Caminho 1" d="M366-561.1a76.379,76.379,0,0,0-19.5,6.9A84.881,84.881,0,0,0,301.9-499c-2.2,8.7-3,25.2-1.6,33.9l.9,4.9-9.4-.6C258.6-463,222-474.9,191-493.7c-17.1-10.3-29.6-20.3-46.4-37-17.9-17.9-16.3-17.5-21-5.6-7.8,20.3-8.5,38.7-1.9,57.2,5.1,14.4,15.9,30.1,26.8,39l5.7,4.6H151c-5.8,0-18.5-3.1-26.2-6.5l-7.8-3.3v5c0,17.6,9.3,38.9,23.4,53.6,10.4,10.9,20.6,17.4,35.1,22.2l8,2.7-8.6,1.3a113.835,113.835,0,0,1-18.8.8c-11.9-.6-11.6-1.5-4.4,12.3A84.049,84.049,0,0,0,187-312.1c10.7,5.5,16.3,7.3,27.4,8.9l8.9,1.3-3.9,3.1c-2.1,1.7-6.9,4.9-10.6,7.2a169.778,169.778,0,0,1-95.2,24.9c-14.8-.6-14.8-.5-.1,7.4,50.3,27,104.6,35.7,161,25.7,85.3-15.1,153.1-75.9,181-162A232.971,232.971,0,0,0,467-466v-13.3l5.8-4.3c10.7-8.1,27.4-25.9,34.7-37.2l1.8-2.7-4.7,2c-10.2,4.3-39.8,12.1-41.1,10.8-.2-.2,2.8-2.8,6.7-5.8,11.1-8.5,21.7-23,26.3-36.1l1.3-3.7-12.1,5.8a201.044,201.044,0,0,1-35.9,13.1l-4.8,1.1-5.2-4.7a84.148,84.148,0,0,0-37.1-19.5C393.2-562.8,375-563.1,366-561.1Z" fill="#020102" fill-rule="evenodd"/>
    </g>
  </g>
</svg>
